<?xml version="1.0" standalone="no"?>
<!DOCTYPE svg PUBLIC "-//W3C//DTD SVG 20010904//EN"
 "http://www.w3.org/TR/2001/REC-SVG-20010904/DTD/svg10.dtd">
<svg version="1.0" xmlns="http://www.w3.org/2000/svg"
 width="500.000000pt" height="500.000000pt" viewBox="0 0 500.000000 500.000000"
 preserveAspectRatio="xMidYMid meet">
<metadata>
Created by potrace 1.15, written by Peter Selinger 2001-2017
</metadata>
<g transform="translate(0.000000,500.000000) scale(0.100000,-0.100000)"
fill="#000000" stroke="none">
<path d="M2670 4021 c-153 -34 -478 -154 -643 -237 -64 -33 -89 -74 -84 -139
3 -41 30 -98 151 -325 81 -151 159 -285 172 -297 13 -12 42 -28 63 -34 37 -11
52 -7 252 61 251 85 264 91 289 133 17 27 20 51 20 155 0 138 -10 173 -59 215
-59 50 -162 30 -208 -39 -12 -19 -18 -48 -18 -93 l-1 -65 -84 -28 c-46 -15
-87 -25 -91 -20 -4 4 -40 67 -79 141 -56 104 -69 135 -59 142 28 17 282 110
370 135 80 23 105 26 198 22 93 -4 116 -8 173 -35 132 -62 178 -123 271 -363
346 -883 451 -1588 285 -1913 -27 -53 -84 -114 -135 -144 -98 -57 -53 -55
-1130 -53 -546 1 -1053 -2 -1128 -6 l-135 -7 0 -139 0 -138 1153 2 1152 3 75
23 c107 33 185 78 262 150 85 80 134 154 175 262 55 147 68 239 67 470 0 159
-6 238 -23 350 -54 356 -166 756 -338 1205 -97 252 -131 314 -233 415 -135
136 -281 197 -490 206 -79 3 -126 -1 -190 -15z"/>
<path d="M2910 2979 c-29 -12 -67 -46 -83 -74 -8 -14 -14 -130 -17 -362 l-5
-342 -78 50 c-175 113 -382 200 -570 241 -137 29 -381 32 -507 5 -177 -38
-373 -117 -533 -215 l-57 -35 0 -180 c0 -142 3 -177 13 -170 6 6 38 31 69 56
130 105 339 208 500 247 109 27 279 36 392 21 236 -32 500 -160 756 -369 106
-85 118 -92 170 -92 48 0 86 19 115 58 19 26 20 45 23 532 2 343 0 517 -8 542
-19 68 -116 114 -180 87z"/>
</g>
</svg>
